<?xml version="1.0" encoding="UTF-8" standalone="no"?>
<svg width="456" height="456" viewBox="0 0 456 456" xmlns="http://www.w3.org/2000/svg">
  <!-- Bead heart: 7 cols x 6 rows, spacing=52, bead_r=20 -->
  <!-- Col x: 72,124,176,228,280,332,384 | Row y: 30,82,134,186,238,290 -->

  <!-- Row 0: y=30, Red #FF3547 — cols 1,2,4,5 -->
  <circle cx="124" cy="30" r="20" fill="#FF3547"/><circle cx="124" cy="30" r="7" fill="#CC0020" opacity="0.7"/><circle cx="116" cy="22" r="5" fill="white" opacity="0.4"/>
  <circle cx="176" cy="30" r="20" fill="#FF3547"/><circle cx="176" cy="30" r="7" fill="#CC0020" opacity="0.7"/><circle cx="168" cy="22" r="5" fill="white" opacity="0.4"/>
  <circle cx="280" cy="30" r="20" fill="#FF3547"/><circle cx="280" cy="30" r="7" fill="#CC0020" opacity="0.7"/><circle cx="272" cy="22" r="5" fill="white" opacity="0.4"/>
  <circle cx="332" cy="30" r="20" fill="#FF3547"/><circle cx="332" cy="30" r="7" fill="#CC0020" opacity="0.7"/><circle cx="324" cy="22" r="5" fill="white" opacity="0.4"/>

  <!-- Row 1: y=82, Orange #FF8C00 — cols 0-6 -->
  <circle cx="72"  cy="82" r="20" fill="#FF8C00"/><circle cx="72"  cy="82" r="7" fill="#CC7000" opacity="0.7"/><circle cx="64"  cy="74" r="5" fill="white" opacity="0.4"/>
  <circle cx="124" cy="82" r="20" fill="#FF8C00"/><circle cx="124" cy="82" r="7" fill="#CC7000" opacity="0.7"/><circle cx="116" cy="74" r="5" fill="white" opacity="0.4"/>
  <circle cx="176" cy="82" r="20" fill="#FF8C00"/><circle cx="176" cy="82" r="7" fill="#CC7000" opacity="0.7"/><circle cx="168" cy="74" r="5" fill="white" opacity="0.4"/>
  <circle cx="228" cy="82" r="20" fill="#FF8C00"/><circle cx="228" cy="82" r="7" fill="#CC7000" opacity="0.7"/><circle cx="220" cy="74" r="5" fill="white" opacity="0.4"/>
  <circle cx="280" cy="82" r="20" fill="#FF8C00"/><circle cx="280" cy="82" r="7" fill="#CC7000" opacity="0.7"/><circle cx="272" cy="74" r="5" fill="white" opacity="0.4"/>
  <circle cx="332" cy="82" r="20" fill="#FF8C00"/><circle cx="332" cy="82" r="7" fill="#CC7000" opacity="0.7"/><circle cx="324" cy="74" r="5" fill="white" opacity="0.4"/>
  <circle cx="384" cy="82" r="20" fill="#FF8C00"/><circle cx="384" cy="82" r="7" fill="#CC7000" opacity="0.7"/><circle cx="376" cy="74" r="5" fill="white" opacity="0.4"/>

  <!-- Row 2: y=134, Yellow #FFD700 — cols 0-6 -->
  <circle cx="72"  cy="134" r="20" fill="#FFD700"/><circle cx="72"  cy="134" r="7" fill="#CCA800" opacity="0.7"/><circle cx="64"  cy="126" r="5" fill="white" opacity="0.4"/>
  <circle cx="124" cy="134" r="20" fill="#FFD700"/><circle cx="124" cy="134" r="7" fill="#CCA800" opacity="0.7"/><circle cx="116" cy="126" r="5" fill="white" opacity="0.4"/>
  <circle cx="176" cy="134" r="20" fill="#FFD700"/><circle cx="176" cy="134" r="7" fill="#CCA800" opacity="0.7"/><circle cx="168" cy="126" r="5" fill="white" opacity="0.4"/>
  <circle cx="228" cy="134" r="20" fill="#FFD700"/><circle cx="228" cy="134" r="7" fill="#CCA800" opacity="0.7"/><circle cx="220" cy="126" r="5" fill="white" opacity="0.4"/>
  <circle cx="280" cy="134" r="20" fill="#FFD700"/><circle cx="280" cy="134" r="7" fill="#CCA800" opacity="0.7"/><circle cx="272" cy="126" r="5" fill="white" opacity="0.4"/>
  <circle cx="332" cy="134" r="20" fill="#FFD700"/><circle cx="332" cy="134" r="7" fill="#CCA800" opacity="0.7"/><circle cx="324" cy="126" r="5" fill="white" opacity="0.4"/>
  <circle cx="384" cy="134" r="20" fill="#FFD700"/><circle cx="384" cy="134" r="7" fill="#CCA800" opacity="0.7"/><circle cx="376" cy="126" r="5" fill="white" opacity="0.4"/>

  <!-- Row 3: y=186, Green #36BA49 — cols 1-5 -->
  <circle cx="124" cy="186" r="20" fill="#36BA49"/><circle cx="124" cy="186" r="7" fill="#228A32" opacity="0.7"/><circle cx="116" cy="178" r="5" fill="white" opacity="0.4"/>
  <circle cx="176" cy="186" r="20" fill="#36BA49"/><circle cx="176" cy="186" r="7" fill="#228A32" opacity="0.7"/><circle cx="168" cy="178" r="5" fill="white" opacity="0.4"/>
  <circle cx="228" cy="186" r="20" fill="#36BA49"/><circle cx="228" cy="186" r="7" fill="#228A32" opacity="0.7"/><circle cx="220" cy="178" r="5" fill="white" opacity="0.4"/>
  <circle cx="280" cy="186" r="20" fill="#36BA49"/><circle cx="280" cy="186" r="7" fill="#228A32" opacity="0.7"/><circle cx="272" cy="178" r="5" fill="white" opacity="0.4"/>
  <circle cx="332" cy="186" r="20" fill="#36BA49"/><circle cx="332" cy="186" r="7" fill="#228A32" opacity="0.7"/><circle cx="324" cy="178" r="5" fill="white" opacity="0.4"/>

  <!-- Row 4: y=238, Blue #2979FF — cols 2-4 -->
  <circle cx="176" cy="238" r="20" fill="#2979FF"/><circle cx="176" cy="238" r="7" fill="#0046C0" opacity="0.7"/><circle cx="168" cy="230" r="5" fill="white" opacity="0.4"/>
  <circle cx="228" cy="238" r="20" fill="#2979FF"/><circle cx="228" cy="238" r="7" fill="#0046C0" opacity="0.7"/><circle cx="220" cy="230" r="5" fill="white" opacity="0.4"/>
  <circle cx="280" cy="238" r="20" fill="#2979FF"/><circle cx="280" cy="238" r="7" fill="#0046C0" opacity="0.7"/><circle cx="272" cy="230" r="5" fill="white" opacity="0.4"/>

  <!-- Row 5: y=290, Purple #9C27B0 — col 3 -->
  <circle cx="228" cy="290" r="20" fill="#9C27B0"/><circle cx="228" cy="290" r="7" fill="#6A1B9A" opacity="0.7"/><circle cx="220" cy="282" r="5" fill="white" opacity="0.4"/>

  <!-- App name -->
  <text x="228" y="368" text-anchor="middle" font-family="sans-serif" font-size="52" font-weight="bold" fill="white" letter-spacing="1" opacity="0.95">FuseBeads</text>
  <text x="228" y="410" text-anchor="middle" font-family="sans-serif" font-size="22" fill="white" letter-spacing="3" opacity="0.75">BEAD PATTERN CREATOR</text>
</svg>